# AST/ASF file generated using VICON BodyLanguage
# -----------------------------------------------
:version 1.10
:name VICON
:units
  mass 1.0
  length 0.45
  angle deg
:documentation
   .ast/.asf automatically generated from VICON data using
   VICON BodyBuilder and BodyLanguage model FoxedUp or BRILLIANT.MOD
:root
   order TX TY TZ RX RY RZ
   axis XYZ
   position 0 0 0  
   orientation 0 0 0 
:bonedata
  begin
     id 1 
     name lhipjoint
     direction 0.700308 -0.549349 0.455834 
     length 2.59063 
     axis 0 0 0  XYZ
  end
  begin
     id 2 
     name lfemur
     direction 0.34202 -0.939693 0  
     length 6.31066  
     axis 0 0 20  XYZ
    dof rx ry rz
    limits (-160.0 20.0)
           (-70.0 70.0)
           (-60.0 70.0)
  end
  begin
     id 3 
     name ltibia
     direction 0.34202 -0.939693 0   
     length 7.36093   
     axis 0 0 20   XYZ
    dof rx
    limits (-10.0 170.0)
  end
  begin
     id 4 
     name lfoot
     direction 0.0905332 -0.248738 0.96433   
     length 2.0233   
     axis -90 7.62852e-016 20   XYZ
    dof rx rz
    limits (-45.0 90.0)
           (-70.0 20.0)
  end
  begin
     id 5 
     name ltoes
     direction 1.53573e-011 -4.21855e-011 1   
     length 1.01524   
     axis -90 7.62852e-016 20   XYZ
    dof rx
    limits (-90.0 20.0)
  end
  begin
     id 6 
     name rhipjoint
     direction -0.61416 -0.607328 0.503944   
     length 2.34332  
     axis 0 0 0  XYZ 
  end
  begin
     id 7 
     name rfemur
     direction -0.34202 -0.939693 0   
     length 6.58548   
     axis 0 0 -20   XYZ
    dof rx ry rz
    limits (-160.0 20.0)
           (-70.0 70.0)
           (-70.0 60.0)
  end
  begin
     id 8 
     name rtibia
     direction -0.34202 -0.939693 0   
     length 7.20707   
     axis 0 0 -20   XYZ
    dof rx
    limits (-10.0 170.0)
 end
 begin
     id 9 
     name rfoot
     direction -0.136772 -0.375778 0.916561   
     length 1.92184  
     axis -90 -7.62852e-016 -20   XYZ
    dof rx rz
    limits (-45.0 90.0)
           (-20.0 70.0)
  end
  begin
     id 10 
     name rtoes
     direction -1.53535e-011 -4.21828e-011 1   
     length 0.951089   
     axis -90 -7.62852e-016 -20   XYZ
    dof rx
    limits (-90.0 20.0)
  end
  begin
     id 11 
     name lowerback
     direction -0.0444974 0.988086 -0.147332   
     length 1.9609   
     axis 0 0 0   XYZ
    dof rx ry rz
    limits (-20.0 45.0)
           (-30.0 30.0)
           (-30.0 30.0)
  end
  begin
     id 12 
     name upperback
     direction 0.00613146 0.999513 0.0306081   
     length 1.94944   
     axis 0 0 0   XYZ
    dof rx ry rz
    limits (-20.0 45.0)
           (-30.0 30.0)
           (-30.0 30.0)
  end
  begin
     id 13 
     name thorax
     direction 0.0254621 0.994518 0.101418   
     length 2.0119   
     axis 0 0 0   XYZ
    dof rx ry rz
    limits (-20.0 45.0)
           (-30.0 30.0)
           (-30.0 30.0)
  end
  begin
     id 14 
     name lowerneck
     direction 0.0168698 0.977854 0.208608   
     length 1.6375   
     axis 0 0 0   XYZ
    dof rx ry rz
    limits (-20.0 45.0)
           (-30.0 30.0)
           (-30.0 30.0)
  end
  begin
     id 15 
     name upperneck
     direction -0.0283988 0.989338 -0.142843   
     length 1.6851   
     axis 0 0 0   XYZ
    dof rx ry rz
    limits (-20.0 45.0)
           (-30.0 30.0)
           (-30.0 30.0)
  end
  begin
     id 16
     name head
     direction -0.0129422 0.99741 -0.0707489  
     length 1.69029  
     axis 0 0 0   XYZ
    dof rx ry rz
    limits (-20.0 45.0)
           (-30.0 30.0)
           (-30.0 30.0)
  end
  begin
     id 17 
     name lclavicle
     direction 0.820295 0.564628 -0.0911715  
     length 3.16484  
     axis 0 0 0   XYZ
    dof ry rz
    limits (-20.0 10.0)
           (0.0 20.0)
  end
  begin
     id 18 
     name lhumerus
     direction 1 -4.48969e-011 1.00186e-027   
     length 5.17853   
     axis 180 -30 -90   XYZ
    dof rx ry rz
    limits (-60.0 90.0)
           (-90.0 90.0)
           (-90.0 90.0)
  end
  begin
     id 19
     name lradius
     direction 1 -4.48966e-011 -1.52922e-027   
     length 3.40399   
     axis 180 -30 -90   XYZ
    dof rx
    limits (-10.0 170.0)
  end
  begin
     id 20
     name lwrist
     direction 1 -4.48981e-011 -3.80893e-027   
     length 1.70199   
     axis 1.1049e-015 90 90   XYZ
    dof ry
    limits (-180.0 0.0)
 end
  begin
     id 21 
     name lhand
     direction 1 -4.48957e-011 -7.61786e-027   
     length 0.708964   
     axis 4.86085e-015 90 90   XYZ
    dof rx rz
    limits (-90.0 90.0)
           (-45.0 45.0)
  end
  begin
     id 22 
     name lfingers
     direction 1 -4.48929e-011 -1.52357e-026   
     length 0.571585   
     axis 9.7217e-015 90 90   XYZ
    dof rx
    limits (0.0 90.0)
  end
  begin
     id 23
     name lthumb
     direction 0.707107 -6.34905e-011 0.707107   
     length 0.820685   
     axis -90 45 2.85299e-015   XYZ
    dof rx rz
    limits (-45.0 45.0)
           (-45.0 45.0)
  end
  begin
     id 24 
     name rclavicle
     direction -0.858602 0.463947 -0.218075   
     length 3.35137  
     axis 0 0 0   XYZ 
    dof ry rz
    limits (-10.0 20.0)
           (-20.0 0.0)
  end
  begin
     id 25 
     name rhumerus
     direction -1 -4.48969e-011 -1.98511e-027  
     length 5.42351   
     axis 180 30 90   XYZ
    dof rx ry rz
    limits (-90.0 60.0)
           (-90.0 90.0)
           (-90.0 90.0)
  end
  begin
     id 26 
     name rradius
     direction -1 -4.48961e-011 -2.82624e-027   
     length 3.42066   
     axis 180 30 90   XYZ
    dof rx
    limits (-10.0 170.0)
  end
  begin
     id 27 
     name rwrist
     direction -1 -4.48966e-011 -3.80893e-027   
     length 1.71033   
     axis 1.1049e-015 -90 -90   XYZ
    dof ry
    limits (-180.0 0.0)
  end
  begin
     id 28
     name rhand
     direction -1 -4.48964e-011 -7.61786e-027   
     length 0.743608   
     axis 4.86085e-015 -90 -90   XYZ
    dof rx rz
    limits (-90.0 90.0)
           (-45.0 45.0)
  end
  begin
     id 29
     name rfingers
     direction -1 -4.48961e-011 -1.52357e-026   
     length 0.599516   
     axis 9.7217e-015 -90 -90   XYZ
    dof rx
    limits (0.0 90.0)
  end
  begin
     id 30
     name rthumb
     direction -0.707107 -6.34913e-011 0.707107   
     length 0.860789   
     axis -90 -45 -2.85299e-015   XYZ
    dof rx rz
    limits (-45.0 45.0)
           (-45.0 45.0)
  end
:hierarchy
  begin
    root lhipjoint rhipjoint lowerback
    lhipjoint lfemur
    lfemur ltibia
    ltibia lfoot
    lfoot ltoes
    rhipjoint rfemur
    rfemur rtibia
    rtibia rfoot
    rfoot rtoes
    lowerback upperback
    upperback thorax
    thorax lowerneck lclavicle rclavicle
    lowerneck upperneck
    upperneck head
    lclavicle lhumerus
    lhumerus lradius
    lradius lwrist
    lwrist lhand lthumb
    lhand lfingers
    rclavicle rhumerus
    rhumerus rradius
    rradius rwrist
    rwrist rhand rthumb
    rhand rfingers
  end

#!OML:ASF E:\mmandel\Project 1\Capture day 1\Session 2\Subject.ASF
:FULLY-SPECIFIED
:DEGREES
992
root 5.73232 14.2998 -1.24656 132.822 83.7744 112.049
lowerback 28.2059 0.424282 -2.7572
upperback 3.28212 0.105776 0.573159
thorax -11.9747 0.330852 2.18243
lowerneck -22.2262 -0.73522 1.60117
upperneck 2.08375 -0.807168 -4.13346
head 4.07385 -0.556321 -1.62953
rclavicle 3.97569e-016 -1.82882e-014
rhumerus -6.0074 -1.59248 -75.5504
rradius 70.4332
rwrist -10.5505
rhand -19.1375 40.7674
rfingers 7.12502
rthumb 7.17241 10.9089
lclavicle 3.97569e-016 -1.82882e-014
lhumerus -5.74915 -19.909 79.462
lradius 60.602
lwrist 18.7429
lhand -20.5108 -41.0841
lfingers 7.12502
lthumb 5.8467 -11.1847
rfemur -62.4725 -13.1267 6.85502
rtibia 72.7763
rfoot -29.9461 -6.157
rtoes -17.7518
lfemur -59.0349 11.137 -14.5767
ltibia 62.4079
lfoot -20.4822 -9.57259
ltoes -7.03803
993
root 5.72987 14.2997 -1.2597 132.771 83.7683 112.002
lowerback 28.2222 0.39415 -2.76787
upperback 3.27664 0.0660504 0.594552
thorax -11.9872 0.31421 2.22811
lowerneck -22.2015 -0.633314 1.60041
upperneck 2.10933 -0.653746 -4.32995
head 4.08356 -0.493401 -1.67702
rclavicle -1.98785e-014 1.59028e-015
rhumerus -5.96813 -1.48515 -75.5509
rradius 70.3621
rwrist -10.5228
rhand -19.2144 40.7524
rfingers 7.12502
rthumb 7.09821 10.8915
lclavicle -1.98785e-014 1.59028e-015
lhumerus -5.79633 -19.7446 79.5796
lradius 60.6261
lwrist 18.9087
lhand -20.5442 -40.8165
lfingers 7.12502
lthumb 5.81445 -10.9163
rfemur -62.4373 -13.2469 6.83764
rtibia 72.7184
rfoot -29.947 -6.00507
rtoes -17.4798
lfemur -59.0752 11.1987 -14.6735
ltibia 62.4435
lfoot -20.4801 -9.68392
ltoes -6.68819
994
root 5.72873 14.2992 -1.27014 132.126 83.7669 111.346
lowerback 28.2614 0.40021 -2.8251
upperback 3.2564 0.050392 0.566906
thorax -12.0301 0.309606 2.23587
lowerneck -22.1889 -0.638473 1.60568
upperneck 2.18273 -0.657142 -4.38788
head 4.10486 -0.500509 -1.69693
rclavicle 1.11319e-014 -1.51076e-014
rhumerus -5.96941 -1.45246 -75.6123
rradius 70.2793
rwrist -10.4928
rhand -19.2132 40.8543
rfingers 7.12502
rthumb 7.09933 10.9934
lclavicle 1.11319e-014 -1.51076e-014
lhumerus -5.91229 -19.7372 79.6104
lradius 60.6949
lwrist 18.9561
lhand -20.719 -40.7849
lfingers 7.12502
lthumb 5.6457 -10.8802
rfemur -62.4698 -13.3243 6.79414
rtibia 72.6643
rfoot -29.8575 -5.89816
rtoes -17.422
lfemur -59.0962 11.1973 -14.7548
ltibia 62.4674
lfoot -20.5296 -9.5955
ltoes -6.99707
995
root 5.72771 14.3023 -1.28132 131.317 83.9199 110.489
lowerback 28.2303 0.433469 -2.79567
upperback 3.26046 0.0982809 0.538778
thorax -12.0121 0.328283 2.16855
lowerneck -22.2826 -0.658689 1.53762
upperneck 2.34366 -0.669541 -4.33055
head 4.16881 -0.507652 -1.67102
rclavicle 2.42517e-014 3.65764e-014
rhumerus -5.94959 -1.44424 -75.6858
rradius 70.2108
rwrist -10.5245
rhand -19.1483 40.819
rfingers 7.12502
rthumb 7.16204 10.9602
lclavicle 2.42517e-014 3.65764e-014
lhumerus -5.90309 -19.7366 79.5652
lradius 60.8018
lwrist 19.1711
lhand -20.6272 -40.8093
lfingers 7.12502
lthumb 5.73429 -10.9069
rfemur -62.5423 -13.255 6.86854
rtibia 72.5878
rfoot -29.7391 -5.8165
rtoes -17.4364
lfemur -59.1208 11.2538 -14.6922
ltibia 62.5098
lfoot -20.6248 -9.46417
ltoes -7.51848
996
root 5.72226 14.3035 -1.29684 129.999 84.128 109.126
lowerback 28.2315 0.473262 -2.72709
upperback 3.25593 0.161891 0.487795
thorax -12.0217 0.351867 2.04673
lowerneck -22.3758 -0.604156 1.47681
upperneck 2.63 -0.58274 -4.29595
head 4.27542 -0.470082 -1.64478
rclavicle 9.54166e-015 -6.36111e-015
rhumerus -5.96109 -1.38071 -75.7475
rradius 70.1719
rwrist -10.615
rhand -19.1363 40.6901
rfingers 7.12502
rthumb 7.17356 10.8317
lclavicle 9.54166e-015 -6.36111e-015
lhumerus -5.85819 -19.7145 79.4824
lradius 60.9122
lwrist 19.5018
lhand -20.3448 -40.7044
lfingers 7.12502
lthumb 6.00695 -10.8095
rfemur -62.6236 -13.1017 6.93963
rtibia 72.4953
rfoot -29.7149 -5.69113
rtoes -17.4204
lfemur -59.1662 11.4111 -14.6413
ltibia 62.5706
lfoot -20.6345 -9.40495
ltoes -7.67586
997
root 5.71598 14.2975 -1.31336 128.211 84.2847 107.341
lowerback 28.2591 0.517268 -2.73398
upperback 3.25087 0.208576 0.443422
thorax -12.0445 0.372033 1.98257
lowerneck -22.2524 -0.569523 1.47678
upperneck 2.83895 -0.530955 -4.3823
head 4.32532 -0.455039 -1.66768
rclavicle -1.94809e-014 -2.70347e-014
rhumerus -6.08472 -1.26565 -75.8029
rradius 70.2377
rwrist -10.6752
rhand -19.1434 40.5927
rfingers 7.12502
rthumb 7.1667 10.7341
lclavicle -1.94809e-014 -2.70347e-014
lhumerus -5.79881 -19.7812 79.3457
lradius 60.9244
lwrist 19.5775
lhand -20.3952 -40.5491
lfingers 7.12502
lthumb 5.95824 -10.6529
rfemur -62.7165 -12.9747 6.94398
rtibia 72.4554
rfoot -29.684 -5.62588
rtoes -17.7067
lfemur -59.22 11.6187 -14.6757
ltibia 62.6931
lfoot -20.606 -9.3797
ltoes -7.30869
998
root 5.71073 14.2993 -1.32752 127.422 84.4188 106.556
lowerback 28.3284 0.542135 -2.72453
upperback 3.19831 0.240137 0.464162
thorax -12.1438 0.387194 1.98943
lowerneck -22.0225 -0.622354 1.51816
upperneck 2.86827 -0.598601 -4.56432
head 4.29934 -0.500233 -1.73693
rclavicle -2.70347e-014 -4.85035e-014
rhumerus -6.37983 -1.11512 -75.7976
rradius 70.4443
rwrist -10.7009
rhand -19.1698 40.4492
rfingers 7.12502
rthumb 7.14128 10.5897
lclavicle -2.70347e-014 -4.85035e-014
lhumerus -5.88065 -19.8753 79.3201
lradius 60.9305
lwrist 19.3925
lhand -20.6895 -40.3499
lfingers 7.12502
lthumb 5.67417 -10.4458
rfemur -62.7706 -12.9193 7.01868
rtibia 72.4009
rfoot -29.5465 -5.57144
rtoes -17.413
lfemur -59.2647 11.7178 -14.6409
ltibia 62.7969
lfoot -20.651 -9.35787
ltoes -6.99903
999
root 5.70583 14.2916 -1.34213 126.82 84.4159 105.885
lowerback 28.3599 0.562087 -2.82707
upperback 3.14669 0.234705 0.502713
thorax -12.2204 0.391423 2.09547
lowerneck -22.1799 -0.706665 1.48672
upperneck 3.07315 -0.680692 -4.73871
head 4.3849 -0.558002 -1.79811
rclavicle -2.42517e-014 -4.45278e-014
rhumerus -6.53994 -0.90244 -75.7072
rradius 70.5547
rwrist -10.7581
rhand -19.353 40.3785
rfingers 7.12502
rthumb 6.96437 10.5131
lclavicle -2.42517e-014 -4.45278e-014
lhumerus -5.89097 -19.8456 79.409
lradius 60.8573
lwrist 19.2304
lhand -20.7156 -40.3606
lfingers 7.12502
lthumb 5.64891 -10.4559
rfemur -62.9175 -12.9972 6.98171
rtibia 72.4091
rfoot -29.4379 -5.45257
rtoes -16.9908
lfemur -59.4593 11.8334 -14.7784
ltibia 62.9284
lfoot -20.6985 -9.42137
ltoes -7.21525
1000
root 5.70039 14.2897 -1.35908 125.63 84.3197 104.65
lowerback 28.3284 0.572518 -3.02814
upperback 3.17115 0.192562 0.527826
thorax -12.173 0.382586 2.25648
lowerneck -22.5262 -0.730047 1.3276
upperneck 3.47801 -0.643325 -4.88059
head 4.56591 -0.562302 -1.82064
rclavicle 2.26615e-014 3.49861e-014
rhumerus -6.41391 -0.617024 -75.6111
rradius 70.4539
rwrist -10.8429
rhand -19.6075 40.4326
rfingers 7.12502
rthumb 6.71877 10.5592
lclavicle 2.26615e-014 3.49861e-014
lhumerus -5.68417 -19.7462 79.4515
lradius 60.7159
lwrist 19.4371
lhand -20.4561 -40.4574
lfingers 7.12502
lthumb 5.89944 -10.5596
rfemur -62.9878 -13.1313 6.81011
rtibia 72.3701
rfoot -29.3424 -5.49726
rtoes -18.1788
lfemur -59.5524 11.9115 -15.0469
ltibia 62.9927
lfoot -20.6984 -9.51369
ltoes -6.90754
1001
root 5.69726 14.2932 -1.37535 124.236 84.238 103.284
lowerback 28.3066 0.587095 -3.209
upperback 3.21426 0.157783 0.510473
thorax -12.1089 0.374657 2.35414
lowerneck -22.5677 -0.670253 1.31876
upperneck 3.67217 -0.526026 -5.17836
head 4.63873 -0.530001 -1.90439
rclavicle 2.78299e-014 4.29375e-014
rhumerus -6.25103 -0.428952 -75.6045
rradius 70.2787
rwrist -10.9239
rhand -19.6063 40.445
rfingers 7.12502
rthumb 6.71989 10.5716
lclavicle 2.78299e-014 4.29375e-014
lhumerus -5.61153 -19.7484 79.4314
lradius 60.7533
lwrist 19.9021
lhand -20.2668 -40.484
lfingers 7.12502
lthumb 6.08222 -10.5913
rfemur -62.9583 -13.2426 6.63552
rtibia 72.2932
rfoot -29.24 -5.53903
rtoes -19.3478
lfemur -59.4853 11.9608 -15.2765
ltibia 63.017
lfoot -20.7388 -9.5619
ltoes -6.49601
1002
root 5.69741 14.2963 -1.39036 123.064 84.2116 102.142
lowerback 28.2899 0.615001 -3.31607
upperback 3.22248 0.155951 0.465779
thorax -12.0902 0.377365 2.36554
lowerneck -22.4626 -0.592403 1.57366
upperneck 3.67049 -0.441297 -5.67459
head 4.62737 -0.517609 -2.09378
rclavicle -2.38542e-015 4.77083e-015
rhumerus -6.24045 -0.455465 -75.6924
rradius 70.1011
rwrist -10.8809
rhand -19.4499 40.514
rfingers 7.12502
rthumb 6.87088 10.6455
lclavicle -2.38542e-015 4.77083e-015
lhumerus -5.58393 -19.9649 79.3423
lradius 60.739
lwrist 20.0963
lhand -20.5747 -40.7406
lfingers 7.12502
lthumb 5.78498 -10.8396
rfemur -62.9111 -13.2895 6.52736
rtibia 72.1792
rfoot -29.1383 -5.54013
rtoes -19.6522
lfemur -59.416 12.0597 -15.4445
ltibia 63.0388
lfoot -20.8032 -9.6019
ltoes -6.406
1003
root 5.69575 14.3018 -1.40589 122.488 84.331 101.559
lowerback 28.3088 0.615443 -3.26188
upperback 3.19454 0.167218 0.44692
thorax -12.1335 0.379485 2.30857
lowerneck -22.5886 -0.542463 1.79043
upperneck 3.9736 -0.388302 -6.04036
head 4.74542 -0.522122 -2.24394
rclavicle -2.46493e-014 -3.89618e-014
rhumerus -6.36892 -0.525403 -75.8519
rradius 70.0278
rwrist -10.7452
rhand -19.3771 40.5221
rfingers 7.12502
rthumb 6.94109 10.6559
lclavicle -2.46493e-014 -3.89618e-014
lhumerus -5.44384 -20.1863 79.1942
lradius 60.5741
lwrist 20.0941
lhand -20.9346 -40.9989
lfingers 7.12502
lthumb 5.43746 -11.0886
rfemur -62.8937 -13.2328 6.58992
rtibia 72.021
rfoot -28.9625 -5.76941
rtoes -20.6458
lfemur -59.4218 12.1962 -15.4365
ltibia 63.0847
lfoot -20.7992 -9.69731
ltoes -5.98079
1004
root 5.69181 14.304 -1.42159 121.478 84.5351 100.53
lowerback 28.3311 0.629518 -3.18336
upperback 3.19126 0.206511 0.439042
thorax -12.1515 0.393145 2.23937
lowerneck -22.7668 -0.587007 1.72977
upperneck 4.36085 -0.422356 -6.02661
head 4.89334 -0.550549 -2.23893
rclavicle 8.74653e-015 -6.36111e-015
rhumerus -6.44907 -0.514947 -76.0168
rradius 70.0173
rwrist -10.6678
rhand -19.3741 40.4512
rfingers 7.12502
rthumb 6.94408 10.5851
lclavicle 8.74653e-015 -6.36111e-015
lhumerus -5.2737 -20.1882 79.0695
lradius 60.4758
lwrist 20.0637
lhand -20.8388 -40.8803
lfingers 7.12502
lthumb 5.52996 -10.9724
rfemur -62.9703 -13.0868 6.72312
rtibia 71.9134
rfoot -28.7901 -5.99877
rtoes -21.6428
lfemur -59.4883 12.4267 -15.362
ltibia 63.1925
lfoot -20.7922 -9.80754
ltoes -5.57629
1005
root 5.68932 14.2992 -1.43831 119.656 84.7511 98.7188
lowerback 28.3278 0.687101 -3.22319
upperback 3.23494 0.276585 0.48207
thorax -12.1035 0.427442 2.28513
lowerneck -22.623 -0.613773 1.572
upperneck 4.38419 -0.420635 -5.97748
head 4.8799 -0.548625 -2.19653
rclavicle 8.74653e-015 2.62396e-014
rhumerus -6.42131 -0.376025 -76.0654
rradius 69.9129
rwrist -10.6339
rhand -19.4361 40.6734
rfingers 7.12502
rthumb 6.88414 10.8053
lclavicle 8.74653e-015 2.62396e-014
lhumerus -5.13409 -20.0826 79.0207
lradius 60.4634
lwrist 19.9719
lhand -20.8258 -40.7034
lfingers 7.12502
lthumb 5.54257 -10.7959
rfemur -63.0353 -12.8896 6.81877
rtibia 71.8677
rfoot -28.7171 -5.99462
rtoes -21.8589
lfemur -59.5418 12.7238 -15.2999
ltibia 63.3589
lfoot -20.8796 -9.91859
ltoes -5.34594
